<svg xmlns="http://www.w3.org/2000/svg" xmlns:xlink="http://www.w3.org/1999/xlink" width="201" zoomAndPan="magnify" viewBox="0 0 150.75 48" height="64" preserveAspectRatio="xMidYMid meet" version="1.2"><defs><clipPath id="a5fe29bcac"><path d="M 1.414062 0 L 47.703125 0 L 47.703125 47 L 1.414062 47 Z M 1.414062 0 "/></clipPath></defs><g id="17d28ded51"><g clip-rule="nonzero" clip-path="url(#a5fe29bcac)"><path style=" stroke:none;fill-rule:nonzero;fill:#343434;fill-opacity:1;" d="M 41.25 11.96875 L 41.25 14.628906 L 45.003906 14.628906 L 45.003906 35.996094 L 28.1875 35.996094 C 28.394531 35.800781 28.601562 35.601562 28.804688 35.398438 C 34.214844 29.988281 37.191406 22.800781 37.191406 15.152344 C 37.191406 12.480469 36.820312 9.839844 36.097656 7.292969 C 36.953125 6.527344 37.492188 5.414062 37.492188 4.179688 C 37.492188 1.875 35.617188 0 33.316406 0 C 31.011719 0 29.140625 1.875 29.140625 4.179688 C 29.140625 6.480469 31.011719 8.355469 33.316406 8.355469 C 33.421875 8.355469 33.527344 8.347656 33.628906 8.34375 C 33.949219 9.53125 34.1875 10.742188 34.335938 11.96875 L 6.5625 11.96875 L 6.5625 34.191406 L 9.222656 34.191406 L 9.222656 14.628906 L 34.527344 14.628906 C 34.53125 14.800781 34.53125 14.976562 34.53125 15.152344 C 34.53125 29.132812 23.429688 40.566406 9.582031 41.101562 C 9.019531 39.460938 7.460938 38.277344 5.632812 38.277344 C 3.328125 38.277344 1.453125 40.148438 1.453125 42.453125 C 1.453125 44.753906 3.328125 46.628906 5.632812 46.628906 C 7.476562 46.628906 9.046875 45.425781 9.597656 43.761719 C 15.15625 43.566406 20.4375 41.792969 24.921875 38.65625 L 47.664062 38.65625 L 47.664062 11.96875 Z M 31.796875 4.179688 C 31.796875 3.339844 32.476562 2.660156 33.316406 2.660156 C 34.15625 2.660156 34.832031 3.339844 34.832031 4.179688 C 34.832031 5.015625 34.15625 5.695312 33.316406 5.695312 C 32.476562 5.695312 31.796875 5.015625 31.796875 4.179688 Z M 5.632812 43.96875 C 4.792969 43.96875 4.113281 43.289062 4.113281 42.453125 C 4.113281 41.613281 4.792969 40.933594 5.632812 40.933594 C 6.46875 40.933594 7.148438 41.613281 7.148438 42.453125 C 7.148438 43.289062 6.46875 43.96875 5.632812 43.96875 Z M 5.632812 43.96875 "/></g><path style=" stroke:none;fill-rule:nonzero;fill:#343434;fill-opacity:1;" d="M 29.460938 40.640625 L 24.765625 40.640625 L 24.765625 43.300781 L 20.742188 43.300781 L 20.742188 45.957031 L 33.488281 45.957031 L 33.488281 43.300781 L 29.460938 43.300781 Z M 29.460938 40.640625 "/><g style="fill:#343434;fill-opacity:1;"><g transform="translate(55.432208, 30.945506)"><path style="stroke:none" d="M 1.203125 0 L 1.203125 -12.375 L 3.46875 -12.375 L 9.28125 -3.65625 L 9.28125 -12.375 L 11.546875 -12.375 L 11.546875 0 L 9.28125 0 L 3.46875 -8.6875 L 3.46875 0 Z M 1.203125 0 "/></g></g><g style="fill:#343434;fill-opacity:1;"><g transform="translate(67.091885, 30.945506)"><path style="stroke:none" d="M 1.203125 0 L 1.203125 -12.375 L 3.46875 -12.375 L 3.46875 -7.375 L 8.046875 -12.375 L 10.828125 -12.375 L 6.28125 -7.453125 L 10.953125 0 L 8.1875 0 L 4.640625 -5.71875 L 3.46875 -4.4375 L 3.46875 0 Z M 1.203125 0 "/></g></g><g style="fill:#343434;fill-opacity:1;"><g transform="translate(77.320526, 30.945506)"><path style="stroke:none" d="M 5.96875 0.21875 C 5.0625 0.21875 4.242188 0.0390625 3.515625 -0.3125 C 2.785156 -0.675781 2.203125 -1.222656 1.765625 -1.953125 C 1.335938 -2.691406 1.125 -3.617188 1.125 -4.734375 L 1.125 -12.375 L 3.390625 -12.375 L 3.390625 -4.71875 C 3.390625 -3.75 3.625 -3.03125 4.09375 -2.5625 C 4.5625 -2.09375 5.207031 -1.859375 6.03125 -1.859375 C 6.84375 -1.859375 7.484375 -2.09375 7.953125 -2.5625 C 8.421875 -3.03125 8.65625 -3.75 8.65625 -4.71875 L 8.65625 -12.375 L 10.921875 -12.375 L 10.921875 -4.734375 C 10.921875 -3.617188 10.695312 -2.691406 10.25 -1.953125 C 9.800781 -1.222656 9.203125 -0.675781 8.453125 -0.3125 C 7.703125 0.0390625 6.875 0.21875 5.96875 0.21875 Z M 5.96875 0.21875 "/></g></g></g></svg>